<?xml version="1.0" encoding="UTF-8" standalone="no"?>
<!-- Created with Inkscape (http://www.inkscape.org/) -->

<svg
   xmlns:dc="http://purl.org/dc/elements/1.1/"
   xmlns:cc="http://creativecommons.org/ns#"
   xmlns:rdf="http://www.w3.org/1999/02/22-rdf-syntax-ns#"
   xmlns:svg="http://www.w3.org/2000/svg"
   xmlns="http://www.w3.org/2000/svg"
   xmlns:sodipodi="http://sodipodi.sourceforge.net/DTD/sodipodi-0.dtd"
   xmlns:inkscape="http://www.inkscape.org/namespaces/inkscape"
   id="svg3194"
   version="1.1"
   inkscape:version="0.91 r13725"
   width="350.15521"
   height="350.75571"
   viewBox="0 0 350.15521 350.75571"
   sodipodi:docname="catlogo.svg">
  <metadata
     id="metadata3200">
    <rdf:RDF>
      <cc:Work
         rdf:about="">
        <dc:format>image/svg+xml</dc:format>
        <dc:type
           rdf:resource="http://purl.org/dc/dcmitype/StillImage" />
        <dc:title></dc:title>
      </cc:Work>
    </rdf:RDF>
  </metadata>
  <defs
     id="defs3198" />
  <sodipodi:namedview
     pagecolor="#ffffff"
     bordercolor="#666666"
     borderopacity="1"
     objecttolerance="10"
     gridtolerance="10"
     guidetolerance="10"
     inkscape:pageopacity="0"
     inkscape:pageshadow="2"
     inkscape:window-width="1920"
     inkscape:window-height="1136"
     id="namedview3196"
     showgrid="false"
     inkscape:zoom="0.13111111"
     inkscape:cx="-152.72425"
     inkscape:cy="88.043549"
     inkscape:window-x="0"
     inkscape:window-y="30"
     inkscape:window-maximized="1"
     inkscape:current-layer="svg3194"
     fit-margin-top="0"
     fit-margin-left="0"
     fit-margin-right="0"
     fit-margin-bottom="0" />
  <path
     inkscape:connector-curvature="0"
     id="path3220"
     d="m -22282.833,165.38149 0,-239.999998 225,0 225,0 0,239.999998 0,240 -225,0 -225,0 0,-240 z"
     style="fill:#fdfdfd" />
  <path
     inkscape:connector-curvature="0"
     id="path3210-3"
     d="m -23052.102,1284.0074 0,-14.925 113.443,0.076 c 75.844,0.051 113.563,-0.024 113.807,-0.226 0.368,-0.3061 0.433,-0.881 1.218,-10.8002 2.491,-31.4967 3.438,-49.276 3.634,-68.25 0.166,-16.0798 -0.09,-23.1042 -0.864,-23.5943 -0.565,-0.3584 -103.36,-0.3256 -103.581,0.033 -0.1,0.1589 0.487,1.6776 1.302,3.375 1.754,3.6576 2.538,6.4621 2.569,9.1916 0.02,1.6119 -0.06,1.9813 -0.428,1.9252 -0.713,-0.1099 -72.84,-16.7068 -77.969,-17.9409 -0.462,-0.1112 -0.615,-0.2763 -0.428,-0.4626 0.159,-0.1594 4.465,-1.2993 9.568,-2.5333 5.103,-1.2339 15.151,-3.6601 22.329,-5.3917 7.177,-1.7315 20.591,-4.9716 29.809,-7.2002 9.217,-2.2285 16.878,-4.0519 17.025,-4.0519 0.496,0 0.269,2.9114 -0.449,5.74 -0.768,3.0285 -2.039,6.0886 -3.3,7.9443 -0.432,0.6352 -0.785,1.3262 -0.785,1.5354 0,0.3056 10.045,0.3803 51.15,0.3803 28.132,0 51.15,-0.1049 51.15,-0.233 0,-0.1282 -0.56,-0.972 -1.244,-1.875 -2.926,-3.8645 -3.588,-6.9896 -2.203,-10.4082 1.069,-2.641 1.639,-4.7646 1.643,-6.1272 0.01,-1.6179 -0.972,-4.5372 -3.654,-10.9066 -4.842,-11.5049 -7.08,-15.308 -13.769,-23.4 -4.773,-5.7736 -5.245,-6.4956 -8.171,-12.4908 -3.17,-6.4947 -5.38,-8.6356 -8.932,-8.6526 -1.425,-0.01 -2.943,0.8302 -4.32,2.3814 -1.537,1.7312 -5.082,2.5196 -8.262,1.8376 -4.61,-0.9887 -9.527,-4.8036 -11.428,-8.8669 -0.9,-1.9233 -0.932,-2.1209 -0.742,-4.6091 0.11,-1.4298 0.276,-3.1587 0.369,-3.8421 0.184,-1.3493 -0.478,-3.1272 -1.752,-4.7056 -0.574,-0.7099 -0.684,-1.1985 -0.676,-3 0.01,-1.8365 0.177,-2.5256 1.154,-4.7019 0.63,-1.4025 1.402,-2.7741 1.716,-3.0481 0.728,-0.6351 0.731,-1.1519 0.01,-1.1519 -0.31,0 -0.705,-0.1709 -0.878,-0.3798 -0.588,-0.7078 -2.491,-5.7561 -3.193,-8.4702 -1.022,-3.9491 -1.19,-5.5743 -0.653,-6.3 0.433,-0.5842 0.471,-0.5859 1.441,-0.063 0.548,0.2951 2.212,1.5549 3.697,2.7996 1.485,1.2447 3.463,2.7882 4.396,3.4301 0.933,0.6419 2.102,1.659 2.597,2.2602 0.496,0.6012 1.049,1.002 1.229,0.8906 -0.916,-6.1847 -1.273,-10.976 -0.766,-15.3105 0.1,-0.2511 0.397,-0.4566 0.669,-0.4566 0.835,0 3.318,1.5081 3.998,2.4284 0.355,0.4794 0.826,0.8716 1.047,0.8716 0.221,0 1.13,0.7336 2.019,1.6302 1.7,1.7136 2.816,2.3299 3.769,2.0809 0.314,-0.082 1.284,0.131 2.154,0.474 3.618,1.4262 7.425,1.3129 10.784,-0.3208 1.042,-0.5072 3.54,-2.149 5.55,-3.6485 7.969,-5.9453 12.135,-8.2393 19.163,-10.5518 9.575,-3.1508 18.456,-3.6664 25.889,-1.5031 8.72,2.5379 13.229,6.5402 24.491,21.7391 8.903,12.0148 10.536,14.5593 13.059,20.352 2.44,5.6048 3.596,7.6563 5.236,9.2965 2.554,2.5536 6.711,4.1632 10.039,3.8871 5.352,-0.4438 7.037,-6.3995 4.733,-16.7355 -1.337,-6.0023 -3.585,-11.1312 -6.607,-15.073 -0.791,-1.0324 -4.277,-4.7121 -7.747,-8.1771 -7.271,-7.2614 -10.099,-10.6753 -15.407,-18.6 -8.452,-12.6192 -11.128,-20.5827 -11.138,-33.14997 -0.01,-7.64034 1.039,-12.92953 3.594,-18.19119 2.212,-4.55613 4.448,-7.1417 8.355,-9.6602 3.347,-2.15755 6.884,-3.05122 8.17,-2.06407 1.629,1.25107 1.502,2.91614 -0.776,10.11546 -3.253,10.28379 -4.105,14.64195 -4.104,21 0,8.8462 2.1,15.05757 8.143,24.10047 1.491,2.2317 2.711,4.338 2.711,4.6806 0,0.6849 5.64,7.9984 6.723,8.7189 0.373,0.2475 1.736,1.7325 3.029,3.3 1.294,1.5675 5.207,5.7525 8.695,9.3 7.083,7.2035 8.557,9.2238 10.672,14.6335 2.69,6.8816 3.748,12.8167 3.502,19.6464 -0.263,7.324 -2.058,12.1315 -6.496,17.4061 -2.856,3.394 -4.661,4.9114 -7.469,6.2777 l -2.006,0.9762 -6.3,0.1736 c -8.7,0.2397 -8.876,0.3146 -13.902,5.9382 -2.506,2.8036 -3.68,3.5113 -6.828,4.1134 -3.819,0.7308 -5.464,1.9502 -6.928,5.1341 -0.682,1.482 -0.709,1.7937 -0.627,7.2 0.08,5.5663 0.07,5.6756 -0.704,7.3009 -0.911,1.9079 -3.752,4.8604 -6.445,6.6982 -7.15,5.4058 -14.849,15.8672 -18.236,23.7818 -0.103,0.2563 17.078,-0.18 37.378,-0.18 l 36.908,0 10.242,-6.4017 c 5.633,-3.5209 10.556,-6.5684 10.939,-6.7722 0.558,-0.297 1.838,-0.2745 6.45,0.1136 17.349,1.46 33.784,3.1332 39.816,4.0536 5.922,0.9036 6.778,1.489 2.837,1.9391 -4.736,0.5409 -10.003,2.2591 -13.769,4.4911 -2.683,1.5908 -6.781,5.4017 -6.781,6.3069 0,0.6708 3.325,4.1359 5.267,5.4891 3.351,2.3346 8.574,4.0884 13.797,4.6329 1.873,0.1952 3.344,0.4533 3.27,0.5736 -0.457,0.7388 -15.488,2.563 -49.395,5.9948 l -3.212,0.3251 -10.066,-6.773 -10.066,-6.7729 -38.687,0 c -36.687,0 -38.701,0.027 -38.971,0.5303 -0.156,0.2918 -0.43,2.5108 -0.61,4.9313 -0.903,12.1609 0.04,29.076 3.727,66.8384 0.234,2.3925 0.904,9.6825 1.489,16.2 0.585,6.5175 1.164,12.4575 1.286,13.2 l 0.221,1.35 98.325,0 98.325,0 0,14.925 0,14.925 -225,0 -225,0 0,-14.925 z m 246.509,-146.55 c 1.79,-1.8838 3.196,-5.6243 3.528,-9.3876 0.383,-4.3267 -0.949,-14.372 -2.902,-21.8874 -0.873,-3.3624 -0.937,-3.9663 -0.969,-9.15 -0.03,-4.9353 -0.103,-5.7012 -0.657,-6.9153 -1.12,-2.4555 -3.995,-5.0847 -5.097,-4.6618 -0.374,0.1436 -0.436,0.477 -0.299,1.6042 0.847,6.9679 0.528,9.2953 -1.635,11.9119 -2.291,2.7724 -2.53,3.8673 -1.72,7.8795 0.486,2.4063 0.55,3.469 0.36,5.9315 -0.598,7.7303 -0.289,9.6095 2.894,17.5807 2.117,5.3028 2.394,5.8737 3.454,7.1333 1.009,1.1995 1.876,1.1884 3.043,-0.039 z m 3.291,20.4657 c -977.622,-39.6207 -488.811,-19.8104 0,0 z"
     style="fill:#000000"
     sodipodi:nodetypes="ccsssscccscccssssccssscccsssccscccccccsccccscsccscsccsccssssssccsscsscscsscsscccccssscccccscscssssssscscccssccccccccccccccssccccsscsscccc" />
  <path
     inkscape:connector-curvature="0"
     id="path3243"
     d="m -23678.038,904.93529 c -4.312,-4.31171 -4.426,-9.2893 -0.292,-12.75979 1.135,-0.95325 3.814,-2.47694 5.952,-3.38598 5.792,-2.46277 6.041,-2.9551 6.251,-12.34305 0.1,-4.26816 -0.08,-10.96552 -0.387,-14.88302 -0.68,-8.62417 -1.359,-10.20475 -7.187,-16.73131 -2.225,-2.49218 -4.545,-5.5401 -5.156,-6.77314 -1.573,-3.17739 -1.911,-7.44739 -0.84,-10.59207 0.478,-1.40194 0.869,-3.08737 0.869,-3.74539 0,-1.23508 -0.644,-1.5601 -5.632,-2.84239 -3.295,-0.84695 -4.418,-2.4079 -5.242,-7.2848 -0.391,-2.31692 -1.255,-6.28322 -1.919,-8.81402 -1.299,-4.94735 -1.335,-4.40564 0.876,-13.07133 0.214,-0.83536 -0.518,-2.22418 -2.69,-5.11107 -3.401,-4.51818 -5.061,-8.73892 -3.594,-9.13723 4.818,-1.30797 6.688,-1.45449 11.897,-0.93177 4.153,0.41678 6.73,0.38429 10.498,-0.13235 6.302,-0.86392 9.789,-0.37277 14.834,2.08911 4.856,2.36974 8.002,5.82084 11.729,12.86609 2.843,5.37565 4.758,7.57659 9.612,11.04621 1.532,1.09546 4.531,3.85045 6.663,6.12219 4.776,5.08698 5.869,5.75368 14.54,8.86778 11.094,3.98445 16.501,7.35661 23.223,14.48238 7.682,8.14346 12.78,15.48839 15.186,21.88151 1.778,4.72434 3.42,13.04082 3.518,17.81845 0.07,3.56148 0.114,3.69813 0.453,1.51552 0.225,-1.44622 0.405,1.58307 0.453,7.62797 0.05,6.56865 -0.104,9.91324 -0.453,9.6974 -0.293,-0.1812 -0.533,0.0513 -0.533,0.5168 0,0.46544 -0.839,2.61429 -1.865,4.77521 -2.125,4.47958 -5.643,8.28575 -9.445,10.22076 l -2.515,1.27952 -43.268,0 -43.268,0 -2.268,-2.26819 z"
     style="fill:#da432e" />
  <path
     inkscape:connector-curvature="0"
     id="path3210-3-6"
     d="m -23871.176,1034.6991 0,-14.925 113.443,0.076 c 75.844,0.051 113.563,-0.024 113.807,-0.226 0.368,-0.306 0.433,-0.8809 1.218,-10.8001 2.491,-31.49671 3.438,-49.27609 3.634,-68.25004 0.166,-16.07979 -0.09,-23.10426 -0.864,-23.59428 -0.565,-0.35844 -103.36,-0.32559 -103.581,0.0331 -0.1,0.15885 0.487,1.6776 1.302,3.375 1.754,3.65754 2.538,6.46206 2.569,9.19155 0.02,1.61196 -0.06,1.98132 -0.428,1.92522 -0.713,-0.10989 -72.84,-16.70682 -77.969,-17.94093 -0.462,-0.11115 -0.615,-0.27627 -0.428,-0.4626 0.159,-0.15936 4.465,-1.2993 9.568,-2.53323 5.103,-1.2339 15.151,-3.66018 22.329,-5.39175 7.177,-1.73154 20.591,-4.97163 29.809,-7.20015 9.217,-2.22855 16.878,-4.05192 17.025,-4.05192 0.496,0 0.269,2.91135 -0.449,5.73999 -0.768,3.0285 -2.039,6.08859 -3.3,7.94427 -0.432,0.63525 -0.785,1.32618 -0.785,1.53537 0,0.30567 10.045,0.38037 51.15,0.38037 28.132,0 51.15,-0.23307 51.15,-0.23307 l 22.083,0.41312 37.378,-0.18 36.908,0 10.242,-6.40167 c 5.633,-3.52092 10.556,-6.56841 10.939,-6.7722 0.558,-0.29703 1.838,-0.2745 6.45,0.11364 17.349,1.45995 33.784,3.1332 39.816,4.05357 5.922,0.90363 6.778,1.48896 2.837,1.93908 -4.736,0.5409 -10.003,2.25906 -13.769,4.49115 -2.683,1.59075 -6.781,5.40168 -6.781,6.3069 0,0.67071 3.325,4.13583 5.267,5.48901 3.351,2.33466 8.574,4.08849 13.797,4.6329 1.873,0.19524 3.344,0.45339 3.27,0.57369 -0.457,0.73872 -15.488,2.56296 -49.395,5.99478 l -3.212,0.32505 -10.066,-6.77295 -10.066,-6.77295 -38.687,0 c -36.687,0 -38.701,0.0273 -38.971,0.53037 -0.156,0.29172 -0.43,2.51076 -0.61,4.93122 -0.903,12.16092 0.04,29.076 3.727,66.83841 0.234,2.3925 0.904,9.6825 1.489,16.19998 0.585,6.5175 1.164,12.4575 1.286,13.2 l 0.221,1.35 98.325,0 98.325,0 0,14.925 0,14.925 -225,0 -225,0 0,-14.925 z"
     style="fill:#4c4f52"
     sodipodi:nodetypes="ccsssscccscccssssccssccccscssssssscscccssccccccccccccc" />
  <path
     inkscape:connector-curvature="0"
     id="path3303"
     d="m -23646.898,931.39779 c -0.342,-0.11683 -5.399,-0.37252 -11.237,-0.5682 -21.184,-0.71003 -55.776,-6.45357 -63.051,-10.46902 -5.663,-3.12528 -8.523,-7.7625 -8.684,-14.07716 -0.1,-3.78092 0.971,-5.36658 5.12,-7.60629 3.959,-2.13702 14.134,-5.42066 17.025,-5.49418 4.974,-0.1265 5.633,-0.72029 5.948,-5.35866 0.317,-4.68764 1.958,-9.13345 4.378,-11.86392 1.907,-2.15304 3.64,-4.7662 3.623,-5.46328 -0,-0.259 -0.953,-0.83596 -2.102,-1.28214 -2.692,-1.04539 -3.235,-3.65253 -2.189,-10.506 1.26,-8.24361 0.981,-10.63108 -1.674,-14.36554 -4.48,-6.30096 -5.584,-9.90113 -4.282,-13.96628 0.734,-2.29124 3.852,-3.99284 7.485,-4.08524 3.263,-0.083 5.161,1.43195 5.802,4.62969 0.253,1.26688 1.463,4.67133 2.687,7.56546 1.569,3.70753 2.272,6.33142 2.38,8.88202 0.235,5.54095 0.708,6.51846 3.854,7.97174 1.538,0.71012 3.111,1.29454 3.497,1.29871 0.438,0.005 0.752,-1.61536 0.836,-4.3016 0.07,-2.37004 0.395,-4.58174 0.715,-4.9149 0.32,-0.33315 2.604,-1.07973 5.075,-1.65906 7.296,-1.71071 10.672,-3.67164 12.513,-7.26808 1.333,-2.60418 2.172,-3.37057 5.649,-5.15868 4.705,-2.41888 6.935,-2.6622 8.623,-0.94055 1.301,1.327 2.712,5.06902 2.77,7.34405 0.06,2.50966 -5.045,6.97797 -10.516,9.1969 -2.722,1.1041 -5.723,2.84404 -6.896,3.99744 -2.475,2.43457 -2.33,3.66155 0.971,8.20906 2.613,3.5986 3.234,5.83177 2.473,8.88826 -0.316,1.27042 -0.404,2.57061 -0.196,2.8893 0.235,0.35902 4.976,0.30448 12.462,-0.14334 7.547,-0.45146 13.246,-0.51495 15.181,-0.16913 2.99,0.53433 3.15,0.4905 4.594,-1.25488 0.822,-0.99472 1.975,-2.54019 2.562,-3.43439 1.241,-1.89122 3.566,-2.15353 7.505,-0.84666 1.368,0.45401 2.527,0.82864 2.575,0.83253 0.05,0.004 0.243,-0.68734 0.433,-1.53606 0.217,-0.96825 1.243,-2.02961 2.753,-2.84905 1.324,-0.71827 3.327,-2.15631 4.452,-3.19564 1.124,-1.03933 4.945,-3.33509 8.49,-5.10167 5.638,-2.80908 6.713,-3.60353 8.571,-6.33347 1.168,-1.71682 2.552,-3.29833 3.075,-3.51448 1.606,-0.66373 5.389,-0.52957 7.034,0.24945 3.131,1.48329 3.827,7.70545 1.315,11.76082 -1.444,2.33099 -5.673,5.70693 -10.879,8.68578 -4.53,2.59173 -7.042,5.26726 -6.993,7.44659 0.03,1.09454 5.531,5.85673 7.825,6.7679 1.758,0.69809 1.911,0.61072 4.864,-2.77944 2.757,-3.16636 3.499,-3.6386 7.778,-4.95142 4.055,-1.2443 5.722,-1.42529 11.685,-1.26922 9.145,0.23928 9.492,0.3241 12.012,2.93079 2.398,2.48182 2.912,5.16643 1.184,6.1919 -0.895,0.53182 -1.044,1.58375 -0.944,6.68449 0.06,3.32936 -0.199,7.07348 -0.587,8.3203 -0.656,2.11259 -0.571,2.46511 1.247,5.17705 3.819,5.69609 2.157,8.1523 -5.027,7.42865 -6.372,-0.64201 -20.097,-0.18748 -26.222,0.86843 -5.169,0.891 -10.525,0.97698 -45.003,0.72237 -37.878,-0.27971 -50.13,-0.69478 -52.742,-1.78679 -0.685,-0.28674 -2.498,-0.61235 -4.027,-0.72359 -4.491,-0.32667 -8.103,-1.36138 -12.291,-3.52107 -2.925,-1.50845 -4.669,-2.0039 -6.833,-1.94168 -3.737,0.10742 -9.459,1.61069 -11.494,3.01969 -1.529,1.05845 -1.547,1.14472 -0.474,2.27141 0.613,0.64415 2.672,1.55971 4.575,2.03459 1.902,0.47488 8.07,2.10374 13.705,3.6197 5.636,1.51597 13.978,3.63292 18.54,4.70436 4.561,1.07144 10.435,2.86964 13.052,3.99603 2.618,1.12638 7.704,3.19844 11.301,4.60459 5.729,2.23945 6.57,2.75555 6.776,4.16006 0.23,1.56131 -0.664,2.02094 -2.627,1.35065 z"
     style="fill:#4c4f52" />
  <path
     inkscape:connector-curvature="0"
     id="path3303-5"
     d="m -22832.872,1181.8038 c -0.342,-0.1168 -5.399,-0.3725 -11.237,-0.5682 -21.184,-0.71 -55.775,-6.4536 -63.051,-10.469 -5.663,-3.1253 -8.523,-7.7625 -8.684,-14.0772 -0.1,-3.7809 0.971,-5.3666 5.12,-7.6063 3.959,-2.137 14.134,-5.4206 17.025,-5.4942 4.974,-0.1265 5.634,-0.7202 5.948,-5.3586 0.318,-4.6877 1.958,-9.1335 4.378,-11.8639 1.908,-2.1531 3.641,-4.7662 3.623,-5.4633 -0,-0.259 -0.952,-0.836 -2.101,-1.2822 -2.693,-1.0453 -3.236,-3.6525 -2.189,-10.506 1.259,-8.2436 0.981,-10.631 -1.675,-14.3655 -4.48,-6.301 -5.584,-9.9011 -4.282,-13.9663 0.734,-2.2912 3.852,-3.9928 7.486,-4.0852 3.262,-0.083 5.16,1.4319 5.801,4.6297 0.254,1.2669 1.463,4.6713 2.687,7.5654 1.569,3.7076 2.272,6.3315 2.38,8.8821 0.235,5.5409 0.708,6.5184 3.855,7.9717 1.537,0.7101 3.111,1.2945 3.497,1.2987 0.437,0.01 0.751,-1.6154 0.835,-4.3016 0.07,-2.37 0.395,-4.5817 0.715,-4.9149 0.32,-0.3331 2.604,-1.0797 5.075,-1.6591 7.296,-1.7107 10.673,-3.6716 12.513,-7.268 1.333,-2.6042 2.172,-3.3706 5.65,-5.1587 4.704,-2.4189 6.935,-2.6622 8.622,-0.9406 1.301,1.327 2.713,5.0691 2.771,7.3441 0.06,2.5096 -5.046,6.978 -10.516,9.1969 -2.722,1.1041 -5.724,2.844 -6.897,3.9974 -2.475,2.4346 -2.33,3.6616 0.972,8.2091 2.612,3.5986 3.234,5.8318 2.473,8.8882 -0.317,1.2705 -0.405,2.5707 -0.197,2.8893 0.235,0.3591 4.976,0.3045 12.462,-0.1433 7.548,-0.4515 13.246,-0.5149 15.181,-0.1691 2.99,0.5343 3.15,0.4905 4.594,-1.2549 0.823,-0.9947 1.976,-2.5402 2.562,-3.4344 1.241,-1.8912 3.566,-2.1535 7.505,-0.8467 1.368,0.4541 2.527,0.8287 2.575,0.8326 0.05,0 0.243,-0.6874 0.434,-1.5361 0.217,-0.9682 1.242,-2.0296 2.752,-2.849 1.324,-0.7183 3.327,-2.1563 4.452,-3.1957 1.125,-1.0393 4.946,-3.3351 8.491,-5.1016 5.637,-2.8091 6.712,-3.6036 8.57,-6.3335 1.168,-1.7168 2.552,-3.2983 3.075,-3.5145 1.607,-0.6637 5.39,-0.5296 7.034,0.2495 3.132,1.4832 3.827,7.7054 1.315,11.7608 -1.444,2.331 -5.672,5.7069 -10.879,8.6858 -4.529,2.5917 -7.042,5.2672 -6.992,7.4465 0.03,1.0946 5.53,5.8568 7.825,6.7679 1.758,0.6981 1.91,0.6108 4.863,-2.7794 2.757,-3.1664 3.499,-3.6386 7.778,-4.9514 4.055,-1.2443 5.722,-1.4253 11.686,-1.2692 9.144,0.2392 9.491,0.3241 12.011,2.9308 2.399,2.4818 2.912,5.1664 1.185,6.1919 -0.896,0.5318 -1.045,1.5837 -0.945,6.6844 0.06,3.3294 -0.199,7.0735 -0.586,8.3203 -0.657,2.1126 -0.572,2.4652 1.246,5.1771 3.819,5.6961 2.157,8.1523 -5.026,7.4286 -6.373,-0.642 -20.098,-0.1874 -26.223,0.8685 -5.168,0.891 -10.525,0.977 -45.002,0.7223 -37.879,-0.2797 -50.131,-0.6947 -52.742,-1.7867 -0.686,-0.2868 -2.498,-0.6124 -4.028,-0.7236 -4.491,-0.3267 -8.103,-1.3614 -12.291,-3.5211 -2.925,-1.5085 -4.668,-2.0039 -6.833,-1.9417 -3.736,0.1074 -9.458,1.6107 -11.494,3.0197 -1.529,1.0585 -1.547,1.1447 -0.474,2.2714 0.613,0.6442 2.672,1.5597 4.575,2.0346 1.903,0.4749 8.07,2.1037 13.706,3.6197 5.635,1.516 13.978,3.6329 18.539,4.7044 4.561,1.0714 10.435,2.8696 13.053,3.996 2.618,1.1264 7.703,3.1984 11.3,4.6046 5.729,2.2394 6.57,2.7555 6.777,4.16 0.229,1.5614 -0.665,2.021 -2.628,1.3507 z"
     style="fill:#4c4f52" />
  <g
     id="g3478"
     inkscape:export-xdpi="90"
     inkscape:export-ydpi="90"
     transform="translate(1270.0957,62.015327)">
    <rect
       y="-62.015327"
       x="-1270.0957"
       height="349.76736"
       width="350.15521"
       id="rect3421"
       style="fill:#4c4f52;fill-opacity:0.59487179" />
    <g
       inkscape:export-ydpi="90"
       inkscape:export-xdpi="90"
       id="g3414">
      <path
         inkscape:connector-curvature="0"
         id="path3210-3-3"
         d="m -1125.8044,149.43579 c 1.0696,-2.641 1.6392,-5.7417 1.6437,-7.1043 0.01,-1.6179 -0.9727,-4.5372 -3.6538,-10.9066 -4.8428,-11.5049 -7.0807,-15.308 -13.7698,-23.4 -4.7727,-5.7736 -5.245,-6.4956 -8.1707,-12.490799 -3.1695,-6.4947 -5.3796,-8.6356 -8.9321,-8.6526 -1.4245,-0.01 -2.9429,0.8302 -4.3201,2.3814 -1.5368,1.7312 -5.0815,2.5196 -8.2616,1.8376 -4.6099,-0.9887 -9.5269,-4.8036 -11.4284,-8.8669 -0.9,-1.9233 -0.9318,-2.1209 -0.7413,-4.6091 0.1095,-1.4298 0.2753,-3.1587 0.3686,-3.8421 0.1841,-1.3493 -0.478,-3.1272 -1.7525,-4.7056 -0.5732,-0.7099 -0.6832,-1.1985 -0.6755,-3 0.01,-1.8365 0.1771,-2.5256 1.1544,-4.7019 0.6299,-1.4025 1.402,-2.7741 1.7158,-3.0481 0.7275,-0.6351 0.7308,-1.1519 0.01,-1.1519 -0.3098,0 -0.7051,-0.1709 -0.8785,-0.3798 -0.5874,-0.7078 -2.4903,-5.756 -3.1927,-8.4702 -1.0221,-3.9491 -1.1904,-5.5743 -0.6526,-6.3 0.4329,-0.5841 0.4709,-0.5858 1.4408,-0.063 0.548,0.2951 2.2113,1.555 3.6963,2.7997 1.485,1.2446 3.4633,2.7882 4.3963,3.4301 0.9329,0.6419 2.1017,1.6589 2.5973,2.2601 0.4956,0.6012 1.0485,1.002 1.2287,0.8906 -0.9156,-6.1847 -1.2725,-10.976 -0.766,-15.3104 0.096,-0.2511 0.3974,-0.4566 0.669,-0.4566 0.835,0 3.3182,1.5081 3.9986,2.4284 0.3544,0.4794 0.8254,0.8716 1.0465,0.8716 0.2212,0 1.1299,0.7336 2.0193,1.6301 1.7,1.7136 2.8161,2.33 3.7684,2.0809 0.3147,-0.082 1.2842,0.131 2.1544,0.4741 3.6182,1.4261 7.4251,1.3129 10.7835,-0.3209 1.0425,-0.5071 3.54,-2.149 5.55,-3.6484 7.9691,-5.94531 12.1352,-8.23934 19.163,-10.5519 9.5751,-3.15075 18.4566,-3.66639 25.8893,-1.50305 8.7198,2.53793 13.2289,6.54024 24.4915,21.73915 8.9031,12.0147 10.5357,14.5592 13.0582,20.3519 2.4407,5.6048 3.5963,7.6563 5.2365,9.2965 2.5535,2.5536 6.7106,4.1632 10.0391,3.8871 5.3522,-0.4438 7.0366,-6.3995 4.7332,-16.7355 -1.3377,-6.0023 -3.5858,-11.1312 -6.6069,-15.073 -0.7912,-1.0324 -4.2773,-4.712 -7.747,-8.177 -7.2712,-7.2615 -10.099,-10.67538 -15.407,-18.60002 -8.4525,-12.61922 -11.1282,-20.5827605 -11.1383,-33.1500005 -0.01,-7.6403395 1.0388,-12.9295295 3.5937,-18.1911895 2.2123,-4.55613 4.4486,-7.1417 8.3553,-9.6602 3.3468,-2.15755 6.884,-3.05122 8.1697,-2.06407 1.6295,1.25107 1.5018,2.91614 -0.7756,10.11546 -3.2531,10.28379 -4.1048,14.64195 -4.104,20.9999995 0,8.84620001 2.0998,15.05761 8.1423,24.1004705 1.4912,2.23169 2.7113,4.33795 2.7113,4.68059 0,0.68486 5.6399,7.99842 6.7236,8.71894 0.3723,0.2475 1.7353,1.7325 3.029,3.3 1.2937,1.5675 5.2062,5.75252 8.6945,9.30002 7.0832,7.2034 8.5566,9.2238 10.6716,14.6334 2.6906,6.8816 3.7488,12.8167 3.5028,19.6464 -0.2637,7.324 -2.058,12.1315 -6.4963,17.4061 -2.8559,3.394 -4.6613,4.9114 -7.4692,6.2777 l -2.006,0.976199 -6.3,0.1736 c -8.7002,0.2397 -8.8755,0.3146 -13.9018,5.9382 -2.5057,2.8036 -3.6803,3.5113 -6.8277,4.1134 -3.8191,0.7308 -5.8559,2.8011 -6.9285,5.1341 -1.0726,2.3329 -8.1473,11.6632 -8.127,15.8797 0.02,4.2165 -0.121,3.7385 4.2144,17.382 z m 20.7561,-9.8356 c 1.7901,-1.8838 3.1961,-5.6243 3.5286,-9.3876 0.3823,-4.3267 -0.9496,-14.372 -2.902,-21.8874 -0.8735,-3.3624 -0.9374,-3.9663 -0.9692,-9.149999 -0.03,-4.9353 -0.103,-5.7012 -0.6568,-6.9153 -1.1202,-2.4555 -3.9949,-5.0847 -5.0971,-4.6618 -0.3743,0.1436 -0.4365,0.477 -0.2994,1.6042 0.8472,6.9679 0.5279,9.2953 -1.6343,11.911899 -2.291,2.7724 -2.5301,3.8673 -1.7203,7.8795 0.4857,2.4063 0.5501,3.469 0.3597,5.9315 -0.5978,7.7303 -0.2884,9.6095 2.8942,17.5807 2.1172,5.3028 2.3936,5.8737 3.4535,7.1333 1.0093,1.1995 1.8767,1.1884 3.0431,-0.039 z"
         style="fill:#712325"
         sodipodi:nodetypes="ccsssccscccccccsccccscsccscsccsccssssssccsscsscscsscsscccccssszzcccssccccsscssc" />
      <g
         id="g3397"
         transform="translate(-1763.7712,-964.83051)">
        <path
           style="fill:#dd9560"
           d="m 763.74038,1096.1556 c 4.3117,-4.3117 4.4255,-9.2893 0.2918,-12.7598 -1.1354,-0.9532 -3.8136,-2.4769 -5.9515,-3.386 -5.792,-2.4627 -6.0414,-2.9551 -6.2515,-12.343 -0.096,-4.2682 0.079,-10.9655 0.3875,-14.883 0.6796,-8.6242 1.3585,-10.2048 7.1863,-16.7314 2.2254,-2.4921 4.5456,-5.5401 5.156,-6.7731 1.5728,-3.1774 1.9115,-7.4474 0.8399,-10.5921 -0.4776,-1.4019 -0.8685,-3.0873 -0.8685,-3.7454 0,-1.235 0.6441,-1.5601 5.6322,-2.8423 3.2946,-0.847 4.4177,-2.4079 5.2414,-7.2848 0.3913,-2.317 1.2549,-6.28329 1.9193,-8.81409 1.2986,-4.9473 1.3349,-4.4056 -0.8765,-13.0713 -0.2132,-0.8353 0.518,-2.2242 2.6909,-5.11105 3.4006,-4.51818 5.0606,-8.73892 3.5935,-9.13723 -4.8175,-1.30797 -6.6884,-1.45449 -11.897,-0.93177 -4.153,0.41678 -6.7301,0.38429 -10.4983,-0.13235 -6.3014,-0.86392 -9.7888,-0.37277 -14.8335,2.08911 -4.856,2.36974 -8.002,5.82084 -11.7287,12.86609 -2.8435,5.3757 -4.7587,7.5766 -9.6121,11.0462 -1.5324,1.0955 -4.531,3.8504 -6.6636,6.1222 -4.77549,5.08699 -5.86859,5.75369 -14.53929,8.86779 -11.094,3.9844 -16.5016,7.3566 -23.2236,14.4823 -7.6822,8.1435 -12.7796,15.4884 -15.18585,21.8816 -1.7783,4.7243 -3.4202,13.0408 -3.5179,17.8184 -0.073,3.5615 -0.1137,3.6981 -0.453,1.5155 -0.2249,-1.4462 -0.4048,1.5831 -0.4531,7.628 -0.052,6.5686 0.1038,9.9132 0.4531,9.6974 0.2932,-0.1812 0.533,0.051 0.533,0.5168 0,0.4654 0.8391,2.6143 1.8645,4.7752 2.1258,4.4796 5.64335,8.2858 9.44585,10.2208 l 2.5144,1.2795 43.26809,0 43.268,0 2.2682,-2.2682 z"
           id="path3243-7"
           inkscape:connector-curvature="0" />
        <path
           sodipodi:nodetypes="ccsssscccscccssssccssccccscssssssscscccssccccccccccccc"
           style="fill:#4c4f52"
           d="m 493.75521,1238.6461 0,-14.925 63.44123,0.076 c 75.84476,0.091 113.5635,-0.024 113.8069,-0.226 0.3688,-0.3061 0.4337,-0.881 1.2182,-10.8002 2.4912,-31.4966 3.4378,-49.276 3.6339,-68.25 0.1662,-16.0798 -0.091,-23.1042 -0.8632,-23.5943 -0.565,-0.3584 -103.3601,-0.3255 -103.5817,0.033 -0.098,0.1589 0.4877,1.6776 1.302,3.375 1.7545,3.6576 2.5383,6.4621 2.5688,9.1916 0.018,1.612 -0.064,1.9813 -0.4278,1.9252 -0.7123,-0.1099 -72.8399,-16.7068 -77.9683,-17.9409 -0.462,-0.1112 -0.615,-0.2763 -0.4287,-0.4626 0.1594,-0.1594 4.4651,-1.2993 9.5684,-2.5332 5.1033,-1.2339 15.1511,-3.6602 22.3286,-5.3918 7.1775,-1.7315 20.5915,-4.9716 29.8089,-7.2001 9.2174,-2.2286 16.8787,-4.052 17.025,-4.052 0.4966,0 0.2691,2.9114 -0.4484,5.74 -0.7683,3.0285 -2.0396,6.0886 -3.3006,7.9443 -0.4317,0.6352 -0.7849,1.3262 -0.7849,1.5354 0,0.3056 10.0456,0.3803 51.15,0.3803 28.1325,0 51.15,-0.233 51.15,-0.233 l 22.0835,0.4131 37.3773,-0.18 36.9084,0 10.2421,-6.4017 c 5.6332,-3.5209 10.5557,-6.5684 10.9389,-6.7722 0.5585,-0.297 1.8379,-0.2745 6.45,0.1137 17.3488,1.4599 33.7843,3.1332 39.8159,4.0535 5.9219,0.9037 6.7784,1.489 2.8373,1.9391 -4.7358,0.5409 -10.0034,2.2591 -13.769,4.4912 -2.6836,1.5907 -6.781,5.4016 -6.781,6.3069 0,0.6707 3.3251,4.1358 5.2672,5.489 3.3508,2.3346 8.5735,4.0885 13.7964,4.6329 1.873,0.1952 3.3446,0.4534 3.2703,0.5737 -0.4566,0.7387 -15.4878,2.5629 -49.3955,5.9947 l -3.2116,0.3251 -10.0657,-6.773 -10.0658,-6.7729 -38.6871,0 c -36.6872,0 -38.7017,0.027 -38.9709,0.5304 -0.1561,0.2917 -0.4309,2.5107 -0.6105,4.9312 -0.9028,12.1609 0.041,29.076 3.7275,66.8384 0.2336,2.3925 0.9035,9.6825 1.4886,16.2 0.5852,6.5175 1.1637,12.4575 1.2855,13.2 l 0.2216,1.35 98.325,0 48.325,0 0,14.925 0,14.925 -175,0 -175.00173,0 0,-14.925 z"
           id="path3210-3-6-5"
           inkscape:connector-curvature="0" />
        <path
           style="fill:#da432e"
           d="m 678.01354,1136.3776 c -0.34208,-0.1168 -5.39881,-0.3725 -11.23697,-0.5682 -21.1842,-0.71 -55.77539,-6.4536 -63.05092,-10.469 -5.66268,-3.1253 -8.52319,-7.7625 -8.68377,-14.0772 -0.0961,-3.7809 0.97119,-5.3666 5.12009,-7.6063 3.95865,-2.137 14.13347,-5.4206 17.02454,-5.4942 4.97458,-0.1265 5.6336,-0.7203 5.94809,-5.3586 0.31774,-4.6877 1.95835,-9.1335 4.37782,-11.8639 1.90778,-2.1531 3.64071,-4.7662 3.62298,-5.4633 -0.007,-0.259 -0.95216,-0.836 -2.10127,-1.2822 -2.69244,-1.0454 -3.2356,-3.6525 -2.18879,-10.506 1.25905,-8.2436 0.98076,-10.631 -1.67463,-14.3655 -4.48023,-6.301 -5.58401,-9.9011 -4.28183,-13.9663 0.73399,-2.2912 3.85173,-3.9928 7.48527,-4.0852 3.26254,-0.083 5.16077,1.4319 5.80126,4.6297 0.2537,1.2668 1.46313,4.6713 2.6876,7.5654 1.56875,3.7076 2.27179,6.3314 2.37996,8.882 0.23494,5.541 0.70754,6.5185 3.8542,7.9718 1.53755,0.7101 3.11111,1.2945 3.49695,1.2987 0.43736,0.01 0.75188,-1.6154 0.83531,-4.3016 0.0735,-2.37 0.39546,-4.5817 0.71549,-4.9149 0.32004,-0.3332 2.6035,-1.0797 5.07456,-1.6591 7.29657,-1.7107 10.67272,-3.6716 12.51318,-7.268 1.33273,-2.6042 2.17202,-3.3706 5.64958,-5.1587 4.70424,-2.4189 6.93497,-2.6622 8.62269,-0.9406 1.30085,1.327 2.71234,5.069 2.77018,7.3441 0.0638,2.5096 -5.04524,6.9779 -10.51579,9.1969 -2.72201,1.1041 -5.72385,2.844 -6.89661,3.9974 -2.47531,2.4346 -2.33008,3.6616 0.9714,8.2091 2.61262,3.5986 3.23399,5.8317 2.47315,8.8882 -0.3162,1.2705 -0.40458,2.5706 -0.19621,2.8893 0.2347,0.3591 4.97594,0.3045 12.46199,-0.1433 7.54706,-0.4515 13.24598,-0.515 15.18079,-0.1691 2.98955,0.5343 3.14998,0.4905 4.59358,-1.2549 0.82278,-0.9947 1.97586,-2.5402 2.56253,-3.4344 1.24082,-1.8912 3.5658,-2.1535 7.5046,-0.8467 1.36838,0.454 2.52728,0.8287 2.57539,0.8326 0.0481,0 0.2431,-0.6874 0.43339,-1.5361 0.21696,-0.9682 1.24241,-2.0296 2.75257,-2.849 1.32356,-0.7183 3.32685,-2.1564 4.45159,-3.1957 1.12475,-1.0393 4.94562,-3.3351 8.49075,-5.1017 5.63741,-2.809 6.71237,-3.6035 8.57027,-6.3334 1.16843,-1.7168 2.55237,-3.2984 3.07555,-3.5145 1.60625,-0.6637 5.38928,-0.5296 7.03382,0.2494 3.13132,1.4833 3.82682,7.7055 1.3146,11.7609 -1.44402,2.331 -5.67215,5.7069 -10.87841,8.6857 -4.52978,2.5918 -7.04227,5.2673 -6.99296,7.4466 0.0278,1.0946 5.53088,5.8568 7.82518,6.7679 1.75782,0.6981 1.91064,0.6108 4.86321,-2.7794 2.75751,-3.1664 3.49944,-3.6386 7.77815,-4.9514 4.05538,-1.2443 5.72172,-1.4253 11.68551,-1.2692 9.14454,0.2392 9.49191,0.3241 12.01129,2.9307 2.39866,2.4819 2.91237,5.1665 1.18489,6.1919 -0.89597,0.5319 -1.04469,1.5838 -0.94498,6.6845 0.0647,3.3294 -0.1988,7.0735 -0.58617,8.3203 -0.65641,2.1126 -0.57153,2.4651 1.24661,5.1771 3.81883,5.6961 2.15684,8.1523 -5.02648,7.4286 -6.37279,-0.642 -20.09736,-0.1874 -26.2225,0.8685 -5.16852,0.891 -10.52506,0.9769 -45.00268,0.7223 -37.87874,-0.2797 -50.13045,-0.6947 -52.74196,-1.7868 -0.68571,-0.2867 -2.49787,-0.6123 -4.02709,-0.7235 -4.49126,-0.3267 -8.10313,-1.3614 -12.29118,-3.5211 -2.92519,-1.5085 -4.66876,-2.0039 -6.83337,-1.9417 -3.73628,0.1074 -9.45822,1.6107 -11.49375,3.0197 -1.52919,1.0584 -1.5472,1.1447 -0.47422,2.2714 0.61348,0.6442 2.67222,1.5597 4.57491,2.0346 1.90278,0.4749 8.07038,2.1037 13.70574,3.6197 5.63537,1.516 13.97798,3.6329 18.53919,4.7044 4.5612,1.0714 10.43502,2.8696 13.0529,3.996 2.61788,1.1264 7.7031,3.1984 11.30041,4.6046 5.72918,2.2394 6.56997,2.7555 6.77655,4.16 0.22976,1.5613 -0.66445,2.021 -2.62772,1.3507 z"
           id="path3303-6"
           inkscape:connector-curvature="0" />
      </g>
    </g>
  </g>
</svg>
